<svg width="29" height="29" viewBox="0 0 29 29" fill="none" xmlns="http://www.w3.org/2000/svg">
<path d="M0.0105539 11.9699C0.0885439 12.7315 0.407604 13.4484 0.921274 14.0161C1.43494 14.5839 2.11642 14.9729 2.86649 15.1264L10.2318 16.7799C10.6686 16.8663 11.0712 17.0771 11.3912 17.3868C11.7112 17.6965 11.9349 18.092 12.0355 18.5258L13.7005 26.0067C13.8526 26.7416 14.2435 27.4055 14.8124 27.8949C15.3813 28.3844 16.0962 28.6718 16.8455 28.7124H17.1115C17.8152 28.7184 18.5035 28.5059 19.0813 28.1041C19.6592 27.7023 20.0981 27.1311 20.3374 26.4692L28.5005 4.84735C28.7438 4.24641 28.8207 3.591 28.723 2.95007C28.6254 2.30914 28.3568 1.70637 27.9455 1.20517C27.4817 0.666625 26.8637 0.283545 26.1751 0.107765C25.4864 -0.0680146 24.7604 -0.0280149 24.0952 0.222345L2.24212 8.45489C1.53987 8.72039 0.942714 9.20649 0.540324 9.84029C0.137934 10.4741 -0.0479561 11.2214 0.0105539 11.9699ZM3.06305 10.6286L23.598 2.87017C23.6476 2.85172 23.7021 2.85085 23.7523 2.8677C23.8024 2.88455 23.8453 2.91811 23.8737 2.96276C23.9021 3.00742 23.9144 3.06047 23.9084 3.11306C23.9024 3.16565 23.8786 3.2146 23.8408 3.25173L12.683 14.3633C12.5461 14.5003 12.3769 14.6007 12.191 14.6552C12.0051 14.7097 11.8086 14.7167 11.6193 14.6755L3.21337 12.8371C2.97142 12.7815 2.75377 12.6496 2.59261 12.4608C2.43144 12.272 2.33533 12.0363 2.31847 11.7886C2.30161 11.541 2.36491 11.2944 2.49901 11.0855C2.6331 10.8766 2.83086 10.7164 3.06305 10.6286Z" fill="black"/>
</svg>
