<svg width="25" height="28" viewBox="0 0 25 28" fill="none" xmlns="http://www.w3.org/2000/svg">
<path d="M24.3124 1.81249V26.1875C24.3119 26.3642 24.2615 26.5372 24.167 26.6864C24.0724 26.8357 23.9376 26.9553 23.7781 27.0312C23.653 27.094 23.5148 27.1262 23.3749 27.125C23.1602 27.1259 22.9518 27.0531 22.7843 26.9187L16.8124 22.0625L7.7843 14.7312C7.67481 14.6434 7.58644 14.5321 7.52572 14.4055C7.465 14.2789 7.43347 14.1404 7.43347 14C7.43347 13.8596 7.465 13.721 7.52572 13.5945C7.58644 13.4679 7.67481 13.3566 7.7843 13.2687L16.8124 5.93749L22.7843 1.08124C22.9224 0.970597 23.0891 0.901317 23.2649 0.881409C23.4408 0.8615 23.6187 0.891777 23.7781 0.968736C23.9376 1.04472 24.0724 1.16424 24.167 1.31353C24.2615 1.46281 24.3119 1.63578 24.3124 1.81249Z" fill="black"/>
<path d="M7.19368 12.5469C6.97804 12.7227 6.80424 12.9443 6.68488 13.1957C6.56553 13.447 6.5036 13.7218 6.5036 14C6.5036 14.2782 6.56553 14.553 6.68488 14.8043C6.80424 15.0557 6.97804 15.2773 7.19368 15.4531L16.8124 23.2719V26.1875C16.8129 26.3668 16.7619 26.5425 16.6655 26.6937C16.5691 26.8449 16.4314 26.9653 16.2687 27.0406C16.1446 27.0953 16.0106 27.124 15.8749 27.125C15.6483 27.1273 15.4284 27.0473 15.2562 26.9L1.19368 14.7125C1.09076 14.6245 1.00813 14.5152 0.951472 14.3922C0.894816 14.2692 0.865479 14.1354 0.865479 14C0.865479 13.8646 0.894816 13.7308 0.951472 13.6078C1.00813 13.4848 1.09076 13.3755 1.19368 13.2875L15.2562 1.1C15.3932 0.981092 15.5618 0.904512 15.7416 0.87955C15.9213 0.854589 16.1044 0.882318 16.2687 0.959374C16.4314 1.03469 16.5691 1.15509 16.6655 1.3063C16.7619 1.45751 16.8129 1.63319 16.8124 1.8125V4.72812L7.19368 12.5469Z" fill="black"/>
</svg>
