<svg width="31" height="31" viewBox="0 0 31 31" fill="none" xmlns="http://www.w3.org/2000/svg">
<path d="M15.5001 12.4166C17.1959 12.4166 18.5834 11.0291 18.5834 9.33331V3.16665C18.5834 1.47081 17.1959 0.083313 15.5001 0.083313C13.8042 0.083313 12.4167 1.47081 12.4167 3.16665V9.33331C12.4167 11.0291 13.8042 12.4166 15.5001 12.4166Z" fill="black"/>
<path d="M26.4459 4.55417C25.9834 4.09167 25.5209 3.9375 24.75 3.9375C23.5167 3.9375 22.4375 5.01667 22.4375 6.25C22.4375 6.86667 22.7459 7.48333 23.0542 7.94583C25.0584 9.95 26.1375 12.5708 26.1375 15.5C26.1375 21.5125 21.3584 26.2917 15.3459 26.2917C9.33337 26.2917 4.55421 21.5125 4.55421 15.5C4.55421 12.5708 5.78754 9.79583 7.79171 7.94583C8.25421 7.48333 8.56254 6.86667 8.56254 6.25C8.56254 5.01667 7.48337 3.9375 6.25004 3.9375C5.63337 3.9375 5.01671 4.24583 4.55421 4.55417C1.77921 7.32917 0.083374 11.1833 0.083374 15.5C0.083374 23.9792 7.02087 30.9167 15.5 30.9167C23.9792 30.9167 30.9167 23.9792 30.9167 15.5C30.9167 11.1833 29.2209 7.32917 26.4459 4.55417Z" fill="black"/>
</svg>
