<svg width="37" height="37" viewBox="0 0 37 37" fill="none" xmlns="http://www.w3.org/2000/svg">
<path d="M18.5 0.950012C15.0289 0.950012 11.6358 1.9793 8.7497 3.90772C5.86362 5.83614 3.61419 8.57708 2.28587 11.7839C0.957555 14.9908 0.610007 18.5195 1.28718 21.9239C1.96435 25.3282 3.63582 28.4553 6.09024 30.9097C8.54465 33.3642 11.6718 35.0356 15.0761 35.7128C18.4805 36.39 22.0092 36.0424 25.2161 34.7141C28.4229 33.3858 31.1638 31.1364 33.0923 28.2503C35.0207 25.3642 36.05 21.9711 36.05 18.5C36.044 13.8473 34.1931 9.38684 30.9031 6.09686C27.6131 2.80689 23.1527 0.955966 18.5 0.950012ZM23.504 21.596C23.7568 21.8491 23.8988 22.1923 23.8988 22.55C23.8988 22.9078 23.7568 23.2509 23.504 23.504C23.2508 23.7568 22.9077 23.8988 22.55 23.8988C22.1922 23.8988 21.8491 23.7568 21.596 23.504L18.5 20.408L15.404 23.504C15.1508 23.7568 14.8077 23.8988 14.45 23.8988C14.0922 23.8988 13.7491 23.7568 13.496 23.504C13.2432 23.2509 13.1011 22.9078 13.1011 22.55C13.1011 22.1923 13.2432 21.8491 13.496 21.596L16.592 18.5L13.496 15.404C13.2575 15.1481 13.1277 14.8096 13.1338 14.4599C13.14 14.1101 13.2817 13.7764 13.529 13.5291C13.7764 13.2818 14.1101 13.1401 14.4598 13.1339C14.8096 13.1277 15.148 13.2576 15.404 13.496L18.5 16.592L21.596 13.496C21.8519 13.2576 22.1904 13.1277 22.5401 13.1339C22.8898 13.1401 23.2235 13.2818 23.4709 13.5291C23.7182 13.7764 23.8599 14.1101 23.8661 14.4599C23.8722 14.8096 23.7424 15.1481 23.504 15.404L20.408 18.5L23.504 21.596Z" fill="black"/>
</svg>
