<svg width="37" height="37" viewBox="0 0 37 37" fill="none" xmlns="http://www.w3.org/2000/svg">
<path d="M23.6127 2.9376V34.066L10.2146 25.5459H3.97451C3.14346 25.5459 2.46777 24.8702 2.46777 24.0392V12.9608C2.46777 12.1298 3.14346 11.4541 3.97451 11.4541H10.211L23.6127 2.9376Z" fill="black"/>
<path d="M30.9188 28.4509L29.8096 27.5223C31.9197 25.0039 33.0832 21.8061 33.0832 18.5144C33.0832 15.2227 31.9197 12.025 29.8096 9.50654L30.9152 8.57793C32.0606 9.94013 32.9495 11.4758 33.5674 13.1343C34.2033 14.8542 34.5285 16.6644 34.5285 18.5144C34.5285 20.3644 34.2069 22.1747 33.5674 23.891C32.9531 25.5531 32.0606 27.0887 30.9188 28.4509Z" fill="black"/>
<path d="M27.0344 22.76L25.9287 21.8314C26.7056 20.9064 27.1355 19.7285 27.1355 18.5145C27.1355 17.3004 26.7056 16.1261 25.9287 15.1975L27.0344 14.2689C28.0316 15.454 28.5772 16.9644 28.5772 18.5145C28.5809 20.0645 28.0316 21.5749 27.0344 22.76Z" fill="black"/>
</svg>
