<svg width="25" height="28" viewBox="0 0 25 28" fill="none" xmlns="http://www.w3.org/2000/svg">
<path d="M0.687569 26.1875L0.687571 1.81251C0.688071 1.63581 0.738501 1.46284 0.833048 1.31355C0.927596 1.16427 1.06241 1.04474 1.22195 0.968762C1.34697 0.905953 1.48516 0.873816 1.62507 0.875012C1.83975 0.874108 2.04824 0.946913 2.2157 1.08126L8.18757 5.93751L17.2157 13.2688C17.3252 13.3566 17.4136 13.4679 17.4743 13.5945C17.535 13.7211 17.5665 13.8596 17.5665 14C17.5665 14.1404 17.535 14.279 17.4743 14.4055C17.4136 14.5321 17.3252 14.6434 17.2157 14.7313L8.18757 22.0625L2.21569 26.9188C2.07756 27.0294 1.91093 27.0987 1.73507 27.1186C1.55922 27.1385 1.38132 27.1082 1.22194 27.0313C1.06241 26.9553 0.927593 26.8358 0.833046 26.6865C0.738499 26.5372 0.688068 26.3642 0.687569 26.1875Z" fill="white"/>
<path d="M17.8063 15.4531C18.022 15.2773 18.1958 15.0557 18.3151 14.8043C18.4345 14.553 18.4964 14.2782 18.4964 14C18.4964 13.7218 18.4345 13.447 18.3151 13.1957C18.1958 12.9443 18.022 12.7227 17.8063 12.5469L8.18758 4.72812L8.18758 1.8125C8.18713 1.63318 8.23812 1.45751 8.3345 1.3063C8.43088 1.15508 8.5686 1.03468 8.73133 0.959374C8.85544 0.904671 8.98944 0.875956 9.12508 0.874999C9.35175 0.872727 9.57156 0.95266 9.74383 1.1L23.8063 13.2875C23.9092 13.3755 23.9919 13.4848 24.0485 13.6078C24.1052 13.7308 24.1345 13.8646 24.1345 14C24.1345 14.1354 24.1052 14.2692 24.0485 14.3922C23.9919 14.5152 23.9092 14.6245 23.8063 14.7125L9.74382 26.9C9.60677 27.0189 9.43815 27.0955 9.25843 27.1204C9.0787 27.1454 8.8956 27.1177 8.73133 27.0406C8.56859 26.9653 8.43087 26.8449 8.3345 26.6937C8.23812 26.5425 8.18713 26.3668 8.18757 26.1875L8.18757 23.2719L17.8063 15.4531Z" fill="white"/>
</svg>
