<svg width="50" height="50" viewBox="0 0 50 50" fill="none" xmlns="http://www.w3.org/2000/svg">
<path fill-rule="evenodd" clip-rule="evenodd" d="M25 50C38.8071 50 50 38.8071 50 25C50 11.1929 38.8071 0 25 0C11.1929 0 0 11.1929 0 25C0 38.8071 11.1929 50 25 50Z" fill="#57BB63"/>
<path fill-rule="evenodd" clip-rule="evenodd" d="M25.0593 38.5175C22.6756 38.5175 20.4362 37.9083 18.4879 36.8391L10.9614 39.2308L13.415 31.9932C12.1774 29.9603 11.4645 27.5763 11.4645 25.028C11.4645 17.5778 17.551 11.5385 25.0596 11.5385C32.5673 11.5385 38.6537 17.5778 38.6537 25.028C38.6537 32.4782 32.5676 38.5175 25.0593 38.5175ZM25.0593 13.6868C18.7565 13.6868 13.6297 18.7745 13.6297 25.028C13.6297 27.5095 14.4387 29.8077 15.8067 31.6775L14.379 35.8892L18.771 34.4932C20.5759 35.6782 22.7377 36.3692 25.0593 36.3692C31.3611 36.3692 36.4888 31.2818 36.4888 25.0283C36.4888 18.7748 31.3611 13.6868 25.0593 13.6868ZM31.9239 28.1348C31.8402 27.9972 31.618 27.9142 31.2854 27.7489C30.9519 27.5837 29.3131 26.7834 29.0082 26.6735C28.7023 26.5634 28.4799 26.5077 28.258 26.8388C28.0362 27.1698 27.3974 27.9142 27.2027 28.1348C27.0082 28.3557 26.814 28.3834 26.4808 28.2178C26.1479 28.0526 25.074 27.7034 23.8008 26.5769C22.8103 25.7006 22.1414 24.6188 21.9473 24.2874C21.7528 23.9566 21.9267 23.7778 22.0934 23.6132C22.2433 23.4649 22.4267 23.2271 22.5934 23.0342C22.7602 22.8409 22.8156 22.7034 22.9263 22.4825C23.0377 22.2618 22.982 22.0689 22.8987 21.9031C22.8153 21.7378 22.1485 20.1108 21.871 19.4486C21.5934 18.7871 21.3162 18.8972 21.1214 18.8972C20.927 18.8972 20.7048 18.8695 20.4827 18.8695C20.2605 18.8695 19.8993 18.9523 19.5937 19.2831C19.2885 19.6142 18.4279 20.4142 18.4279 22.0409C18.4279 23.668 19.6214 25.24 19.7885 25.4603C19.955 25.6806 22.0931 29.128 25.4805 30.452C28.8691 31.7757 28.8691 31.3342 29.4802 31.2791C30.0903 31.224 31.451 30.4794 31.7294 29.7074C32.0067 28.9348 32.0067 28.2726 31.9239 28.1348Z" fill="white"/>
</svg>
