<svg width="50" height="50" viewBox="0 0 50 50" fill="none" xmlns="http://www.w3.org/2000/svg">
<path d="M0 24.3657V25.7133C0.351562 38.643 10.7617 49.0239 23.1543 50.0005H26.9629C39.4238 49.0141 49.6582 38.5454 50 25.6938V24.3657C49.6582 11.2895 39.0723 0.684039 26.3086 0.0297417C12.5781 -0.663618 0.380859 10.352 0 24.3657Z" fill="url(#paint0_radial)"/>
<path d="M25.1172 12.5586C29.1016 12.5586 29.5703 12.5684 31.1523 12.6465C32.6074 12.7051 33.3887 12.959 33.916 13.1641C34.6094 13.4375 35.1074 13.7695 35.625 14.2969C36.1426 14.8242 36.4746 15.332 36.748 16.0352C36.9531 16.5723 37.1875 17.373 37.2656 18.8574C37.3438 20.459 37.3535 20.9375 37.3535 24.9902C37.3535 29.043 37.3438 29.5215 37.2656 31.123C37.207 32.5976 36.9629 33.4082 36.748 33.9453C36.4746 34.6484 36.1523 35.1562 35.625 35.6836C35.1074 36.2109 34.6094 36.543 33.916 36.8164C33.3887 37.0312 32.5977 37.2754 31.1523 37.334C29.5801 37.4121 29.1016 37.4219 25.1172 37.4219C21.1328 37.4219 20.6641 37.4121 19.082 37.334C17.627 37.2754 16.8457 37.0215 16.3184 36.8164C15.625 36.543 15.127 36.2109 14.6094 35.6836C14.0918 35.1562 13.7598 34.6484 13.4863 33.9453C13.2813 33.4082 13.0469 32.6074 12.9688 31.123C12.8906 29.5215 12.8809 29.043 12.8809 24.9902C12.8809 20.9375 12.8906 20.459 12.9688 18.8574C13.0273 17.3828 13.2715 16.5723 13.4863 16.0352C13.7598 15.332 14.082 14.8242 14.6094 14.2969C15.127 13.7695 15.625 13.4375 16.3184 13.1641C16.8457 12.9492 17.6367 12.7051 19.082 12.6465C20.6543 12.5781 21.1328 12.5586 25.1172 12.5586ZM25.1172 9.82422C21.0645 9.82422 20.5566 9.84375 18.9746 9.92187C17.3926 10 16.2988 10.2539 15.3516 10.625C14.3652 11.0156 13.5352 11.5332 12.7148 12.3828C11.8848 13.2324 11.377 14.0723 10.9961 15.0781C10.625 16.0352 10.3711 17.1484 10.3027 18.7598C10.2246 20.3711 10.2148 20.8887 10.2148 25.0098C10.2148 29.1308 10.2344 29.6484 10.3027 31.2598C10.3809 32.8711 10.6348 33.9746 10.9961 34.9414C11.377 35.9375 11.8848 36.7871 12.7148 37.6367C13.5449 38.4863 14.375 39.0039 15.3516 39.3945C16.2988 39.7754 17.3926 40.0293 18.9746 40.0976C20.5664 40.1758 21.0742 40.1953 25.1172 40.1953C29.1602 40.1953 29.6777 40.1758 31.2598 40.0976C32.8418 40.0195 33.9355 39.7656 34.8828 39.3945C35.8691 39.0039 36.6992 38.4863 37.5195 37.6367C38.3496 36.7871 38.8574 35.9473 39.2383 34.9414C39.6094 33.9844 39.8633 32.8711 39.9316 31.2598C40.0098 29.6484 40.0195 29.1308 40.0195 25.0098C40.0195 20.8887 40 20.3711 39.9316 18.7598C39.8535 17.1484 39.5996 16.0449 39.2383 15.0781C38.8574 14.082 38.3496 13.2324 37.5195 12.3828C36.6895 11.5332 35.8594 11.0156 34.8828 10.625C33.9355 10.2441 32.8418 9.99023 31.2598 9.92187C29.6777 9.84375 29.1602 9.82422 25.1172 9.82422Z" fill="white"/>
<path d="M25.1172 17.207C20.8789 17.207 17.4609 20.6933 17.4609 25C17.4609 29.3066 20.8887 32.793 25.1172 32.793C29.3457 32.793 32.7735 29.3066 32.7735 25C32.7735 20.6933 29.3457 17.207 25.1172 17.207ZM25.1172 30.0586C22.3731 30.0586 20.1465 27.8027 20.1465 25C20.1465 22.1973 22.3731 19.9414 25.1172 19.9414C27.8613 19.9414 30.0879 22.1973 30.0879 25C30.0879 27.8027 27.8613 30.0586 25.1172 30.0586Z" fill="white"/>
<path d="M33.0762 18.7109C34.0632 18.7109 34.8633 17.8977 34.8633 16.8945C34.8633 15.8914 34.0632 15.0781 33.0762 15.0781C32.0892 15.0781 31.2891 15.8914 31.2891 16.8945C31.2891 17.8977 32.0892 18.7109 33.0762 18.7109Z" fill="white"/>
<defs>
<radialGradient id="paint0_radial" cx="0" cy="0" r="1" gradientUnits="userSpaceOnUse" gradientTransform="translate(0.913655 45.416) rotate(-86.9998) scale(72.2867 61.4436)">
<stop stop-color="#FED576"/>
<stop offset="0.2634" stop-color="#F47133"/>
<stop offset="0.6091" stop-color="#BC3081"/>
<stop offset="1" stop-color="#4C63D2"/>
</radialGradient>
</defs>
</svg>
