<svg width="50" height="50" viewBox="0 0 50 50" fill="none" xmlns="http://www.w3.org/2000/svg">
<path d="M50 25C50 38.8086 38.8086 50 25 50C11.1914 50 0 38.8086 0 25C0 11.1914 11.1914 0 25 0C38.8086 0 50 11.1914 50 25Z" fill="#1DA1F2"/>
<path d="M35.0098 19.8145C35.332 27.0312 29.9512 35.0684 20.4297 35.0684C17.5293 35.0684 14.834 34.2188 12.5684 32.7637C15.293 33.0859 18.0078 32.334 20.166 30.6445C17.9199 30.6055 16.0254 29.1211 15.3711 27.0801C16.1719 27.2363 16.9629 27.1875 17.6855 26.9922C15.2148 26.4941 13.5156 24.2773 13.5742 21.8945C14.2676 22.2754 15.0586 22.5098 15.8984 22.5391C13.6133 21.0156 12.9688 17.998 14.3066 15.6934C16.8359 18.7988 20.6152 20.8398 24.8828 21.0547C24.1406 17.8418 26.5723 14.7559 29.8828 14.7559C31.3574 14.7559 32.6855 15.3809 33.623 16.377C34.7949 16.1426 35.8887 15.7227 36.8848 15.1367C36.5039 16.3379 35.6836 17.3438 34.6289 17.9785C35.6641 17.8516 36.6504 17.5781 37.5781 17.168C36.875 18.1934 36.0059 19.0918 35.0098 19.8145Z" fill="white"/>
</svg>
