<svg width="50" height="50" viewBox="0 0 50 50" fill="none" xmlns="http://www.w3.org/2000/svg">
<path d="M25 50C38.8071 50 50 38.8071 50 25C50 11.1929 38.8071 0 25 0C11.1929 0 0 11.1929 0 25C0 38.8071 11.1929 50 25 50Z" fill="#3B5998"/>
<path d="M29.4531 14.7656C30.9766 14.7656 32.9981 14.7656 32.9981 14.7656V9.47266C32.9981 9.47266 30.8692 9.47266 27.9785 9.47266C25.0879 9.47266 21.3281 11.3281 21.3281 16.7187C21.3281 17.7246 21.3281 19.1992 21.3281 20.918H16.5332V26.3965H21.3281C21.3281 33.2227 21.3281 40.6543 21.3281 40.6543H23.457H25.1465H27.0508C27.0508 40.6543 27.0508 32.959 27.0508 26.3965H31.8164L32.6074 20.918H27.0508C27.0508 19.1211 27.0508 17.8125 27.0508 17.4316C27.0508 15.6348 27.9297 14.7656 29.4531 14.7656Z" fill="white"/>
</svg>
