<svg width="29" height="25" xmlns="http://www.w3.org/2000/svg">

 <g>
  <title>background</title>
  <rect fill="none" id="canvas_background" height="402" width="582" y="-1" x="-1"/>
 </g>
 <g>
  <title>Layer 1</title>
  <path id="svg_2" fill="#ffffff" d="m26.475,2.95c-2.889,-2.889 -7.401,-3.146 -10.59,-0.79c0.277,0.454 0.563,0.904 0.83,1.363c0.523,0.868 1.012,1.752 1.493,2.639c0.493,0.882 0.968,1.772 1.427,2.669l0.563,1.098l-1.188,0.668c-2.242,1.261 -4.529,2.435 -6.838,3.563c0.639,2.111 1.232,4.239 1.751,6.391c0.169,0.639 0.298,1.291 0.443,1.936c0.143,0.647 0.289,1.293 0.406,1.949c0.09,0.464 0.171,0.932 0.253,1.398c0.248,-0.196 0.492,-0.403 0.721,-0.633l10.729,-10.729c3.181,-3.181 3.181,-8.34 0,-11.522z"/>
  <path id="svg_3" fill="#ffffff" d="m12.697,23.043c-0.271,-0.604 -0.559,-1.202 -0.807,-1.814c-1.046,-2.429 -2.007,-4.887 -2.883,-7.372l-0.416,-1.182l1.156,-0.604c2.285,-1.193 4.605,-2.315 6.955,-3.378c-0.2,-0.524 -0.407,-1.045 -0.597,-1.575c-0.352,-0.946 -0.697,-1.896 -1.007,-2.861c-0.124,-0.365 -0.231,-0.737 -0.349,-1.104l-0.243,0.243l-0.572,-0.446c-3.182,-3.182 -8.468,-3.182 -11.65,0c-3.183,3.182 -3.119,8.341 0.063,11.522l10.792,10.729c0.282,0.281 0.603,0.529 0.962,0.76c-0.188,-0.371 -0.378,-0.742 -0.56,-1.115c-0.3,-0.595 -0.569,-1.2 -0.844,-1.803z"/>
 </g>
</svg>