<svg width="33" height="33" viewBox="0 0 33 33" fill="none" xmlns="http://www.w3.org/2000/svg">
<path d="M27.0875 0.6875H5.9125C3.025 0.6875 0.6875 3.025 0.6875 5.9125V27.0875C0.6875 29.975 3.025 32.3125 5.9125 32.3125H27.0875C29.975 32.3125 32.3125 29.975 32.3125 27.0875V5.9125C32.3125 3.025 29.975 0.6875 27.0875 0.6875ZM22.9625 8.25L21.5875 12.2375C21.5875 12.375 21.45 12.5125 21.175 12.65C21.0375 12.7875 20.7625 12.65 20.625 12.65C20.625 12.65 19.525 12.1 18.2875 12.1C17.325 12.1 16.775 12.5125 16.775 13.0625C16.775 13.475 17.4625 13.8875 18.15 14.4375C19.525 15.5375 21.5875 16.9125 21.5875 19.8C21.5875 23.5125 19.25 25.9875 15.95 25.9875C12.2375 25.9875 10.3125 23.65 10.175 23.65C10.0375 23.5125 10.0375 23.2375 10.0375 23.1L11 20.075C11 19.8 11.275 19.6625 11.4125 19.6625C11.6875 19.6625 11.825 19.6625 12.1 19.8C12.5125 20.2125 14.025 21.175 14.9875 21.175C15.675 21.175 15.675 20.4875 15.675 20.4875C15.675 19.8 15.125 19.3875 14.3 18.7C13.2 17.7375 11.6875 16.6375 11.6875 14.1625C11.6875 10.725 14.1625 7.0125 19.525 7.0125C21.45 7.0125 22.55 7.5625 22.55 7.5625C22.9625 7.7 23.1 7.975 22.9625 8.25Z" fill="black"/>
</svg>
