<svg width="177" height="142" viewBox="0 0 177 142" fill="none" xmlns="http://www.w3.org/2000/svg">
<path d="M45.7109 1.40625V7.64062H50.0469V12.6094H45.7109V25.2656C45.7109 26.2031 45.8906 26.875 46.25 27.2812C46.6094 27.6875 47.2969 27.8906 48.3125 27.8906C49.0625 27.8906 49.7266 27.8359 50.3047 27.7266V32.8594C48.9766 33.2656 47.6094 33.4688 46.2031 33.4688C41.4531 33.4688 39.0312 31.0703 38.9375 26.2734V12.6094H35.2344V7.64062H38.9375V1.40625H45.7109ZM52.0625 20.0859C52.0625 17.5703 52.5469 15.3281 53.5156 13.3594C54.4844 11.3906 55.875 9.86719 57.6875 8.78906C59.5156 7.71094 61.6328 7.17188 64.0391 7.17188C67.4609 7.17188 70.25 8.21875 72.4062 10.3125C74.5781 12.4062 75.7891 15.25 76.0391 18.8438L76.0859 20.5781C76.0859 24.4688 75 27.5938 72.8281 29.9531C70.6562 32.2969 67.7422 33.4688 64.0859 33.4688C60.4297 33.4688 57.5078 32.2969 55.3203 29.9531C53.1484 27.6094 52.0625 24.4219 52.0625 20.3906V20.0859ZM58.8359 20.5781C58.8359 22.9844 59.2891 24.8281 60.1953 26.1094C61.1016 27.375 62.3984 28.0078 64.0859 28.0078C65.7266 28.0078 67.0078 27.3828 67.9297 26.1328C68.8516 24.8672 69.3125 22.8516 69.3125 20.0859C69.3125 17.7266 68.8516 15.8984 67.9297 14.6016C67.0078 13.3047 65.7109 12.6562 64.0391 12.6562C62.3828 12.6562 61.1016 13.3047 60.1953 14.6016C59.2891 15.8828 58.8359 17.875 58.8359 20.5781ZM94.5078 13.9922C93.5859 13.8672 92.7734 13.8047 92.0703 13.8047C89.5078 13.8047 87.8281 14.6719 87.0312 16.4062V33H80.2578V7.64062H86.6562L86.8438 10.6641C88.2031 8.33594 90.0859 7.17188 92.4922 7.17188C93.2422 7.17188 93.9453 7.27344 94.6016 7.47656L94.5078 13.9922ZM107.68 23.4141L112.367 7.64062H119.633L109.438 36.9375L108.875 38.2734C107.359 41.5859 104.859 43.2422 101.375 43.2422C100.391 43.2422 99.3906 43.0938 98.375 42.7969V37.6641L99.4062 37.6875C100.688 37.6875 101.641 37.4922 102.266 37.1016C102.906 36.7109 103.406 36.0625 103.766 35.1562L104.562 33.0703L95.6797 7.64062H102.969L107.68 23.4141Z" fill="black"/>
<path d="M176.041 60.3995C165.693 47.2784 150.761 38.9722 134.529 37.3083C118.297 35.6443 102.094 40.7589 89.4854 51.5268C76.8769 62.2947 68.8952 77.834 67.2962 94.7261C65.6973 111.618 70.612 128.479 80.9593 141.601L128.5 101L176.041 60.3995Z" fill="black"/>
<path d="M27.0875 0.6875H5.9125C3.025 0.6875 0.6875 3.025 0.6875 5.9125V27.0875C0.6875 29.975 3.025 32.3125 5.9125 32.3125H27.0875C29.975 32.3125 32.3125 29.975 32.3125 27.0875V5.9125C32.3125 3.025 29.975 0.6875 27.0875 0.6875ZM22.9625 8.25L21.5875 12.2375C21.5875 12.375 21.45 12.5125 21.175 12.65C21.0375 12.7875 20.7625 12.65 20.625 12.65C20.625 12.65 19.525 12.1 18.2875 12.1C17.325 12.1 16.775 12.5125 16.775 13.0625C16.775 13.475 17.4625 13.8875 18.15 14.4375C19.525 15.5375 21.5875 16.9125 21.5875 19.8C21.5875 23.5125 19.25 25.9875 15.95 25.9875C12.2375 25.9875 10.3125 23.65 10.175 23.65C10.0375 23.5125 10.0375 23.2375 10.0375 23.1L11 20.075C11 19.8 11.275 19.6625 11.4125 19.6625C11.6875 19.6625 11.825 19.6625 12.1 19.8C12.5125 20.2125 14.025 21.175 14.9875 21.175C15.675 21.175 15.675 20.4875 15.675 20.4875C15.675 19.8 15.125 19.3875 14.3 18.7C13.2 17.7375 11.6875 16.6375 11.6875 14.1625C11.6875 10.725 14.1625 7.0125 19.525 7.0125C21.45 7.0125 22.55 7.5625 22.55 7.5625C22.9625 7.7 23.1 7.975 22.9625 8.25Z" fill="black"/>
</svg>
